<svg width="12" height="14" viewBox="0 0 12 14" fill="none" xmlns="http://www.w3.org/2000/svg">
<path d="M11.7439 13.3563C11.661 13.4482 11.5494 13.4998 11.433 13.5C11.3151 13.4994 11.2019 13.448 11.1166 13.3563L8.71854 10.65C7.70856 11.6051 6.41007 12.0844 5.09388 11.9878C3.77769 11.8912 2.54543 11.2263 1.6541 10.1316C0.762769 9.03701 0.281189 7.5972 0.309799 6.11251C0.33841 4.62782 0.875001 3.21289 1.80766 2.16281C2.74032 1.11272 3.99704 0.508576 5.31571 0.476363C6.63438 0.444151 7.91318 0.986362 8.88542 1.98991C9.85765 2.99346 10.4482 4.38086 10.534 5.86276C10.6198 7.34465 10.1941 8.80662 9.34581 9.94376L11.7439 12.6438C11.7859 12.6903 11.8192 12.7457 11.8419 12.8069C11.8647 12.8681 11.8764 12.9337 11.8764 13C11.8764 13.0663 11.8647 13.132 11.8419 13.1931C11.8192 13.2543 11.7859 13.3097 11.7439 13.3563ZM5.43783 11C6.27224 11 7.08791 10.7214 7.78169 10.1995C8.47548 9.67755 9.01622 8.9357 9.33553 8.06775C9.65485 7.1998 9.7384 6.24474 9.57561 5.32333C9.41283 4.40192 9.01102 3.55555 8.421 2.89125C7.83099 2.22695 7.07926 1.77456 6.26088 1.59128C5.44251 1.408 4.59424 1.50206 3.82334 1.86158C3.05245 2.22109 2.39355 2.82991 1.92998 3.61105C1.46641 4.39218 1.21898 5.31054 1.21898 6.25001C1.22045 7.50928 1.6654 8.7165 2.45627 9.60694C3.24714 10.4974 4.31937 10.9984 5.43783 11Z" fill="#757575"/>
</svg>
